<?xml version="1.0" encoding="UTF-8" standalone="no"?>
<svg width="256px" height="256px" viewBox="0 0 256 256" version="1.1" xmlns="http://www.w3.org/2000/svg" xmlns:xlink="http://www.w3.org/1999/xlink" xmlns:sketch="http://www.bohemiancoding.com/sketch/ns">
    <!-- Generator: Sketch 3.0.4 (8053) - http://www.bohemiancoding.com/sketch -->
    <title>icon</title>
    <desc>Created with Sketch.</desc>
    <defs></defs>
    <g id="Email-Protector-Icon" stroke="none" stroke-width="1" fill="none" fill-rule="evenodd" sketch:type="MSPage">
        <g id="icon" sketch:type="MSArtboardGroup">
            <rect id="Rectangle-1" stroke="#979797" fill="#C1CCDA" sketch:type="MSShapeGroup" x="0" y="0" width="256" height="256"></rect>
            <path d="M128,32 L192,32 L192,160 C192,195.346224 163.346224,224 128,224 C92.653776,224 128,32 128,32 Z" id="shield" fill="#D0011B" sketch:type="MSShapeGroup"></path>
            <path d="M64,32 L64,160 C64,195.346224 92.653776,224 128,224 L128,32 L64,32 Z" id="shield-2" fill="#F8E81C" sketch:type="MSShapeGroup"></path>
            <path d="M164.2,123.2 C164.2,103.1 147,92 129.3,92 C109.3,92 93,107.6 93,128.2 C93,148.8 108.9,164.4 129.2,164.4 L148,164.4 L148,155.2 L129.2,155.2 C114.5,155.2 102.9,143.8 102.9,128.2 C102.9,112.5 114.8,101.1 129.3,101.1 C142.1,101.1 154.6,108.6 154.6,123.2 C154.6,129.9 152.4,134.6 148,136.5 L148,128.5 C148,117.7 140.4,109.2 129.2,109.2 C118,109.2 110.1,117.9 110.1,128.4 C110.1,138.8 117.9,147.4 128.2,147.4 L136.150002,147.400002 C151.950002,147.900002 164.2,138.3 164.2,123.2 Z" id="@" fill="#4A4A4A" sketch:type="MSShapeGroup"></path>
            <polygon id="Star-1" fill="#FFFFFF" sketch:type="MSShapeGroup" points="39.0000003 61.0331182 31.0469057 67.0677913 34.3011796 57.7951766 26.1316231 52.1930782 35.6266744 52.1930787 39 43 42.4769614 52.1930787 51.8683769 52.1930782 44.0677618 57.7951766 46.9530943 67.0677913 "></polygon>
            <polygon id="Star-2" fill="#FFFFFF" sketch:type="MSShapeGroup" points="30.5000001 135.513799 27.1352293 138.028246 28.5120375 134.164657 25.0556867 131.830449 29.0728238 131.830449 30.5 128 31.9710221 131.830449 35.9443133 131.830449 32.644053 134.164657 33.8647707 138.028246 "></polygon>
            <polygon id="Star-6" fill="#FFFFFF" sketch:type="MSShapeGroup" points="49.5000001 161.513799 46.1352293 164.028246 47.5120375 160.164657 44.0556867 157.830449 48.0728238 157.830449 49.5 154 50.9710221 157.830449 54.9443133 157.830449 51.644053 160.164657 52.8647707 164.028246 "></polygon>
            <polygon id="Star-7" fill="#FFFFFF" sketch:type="MSShapeGroup" points="245.5 52.5137993 242.135229 55.0282464 243.512038 51.1646569 240.055687 48.8304493 244.072824 48.8304495 245.5 45 246.971022 48.8304495 250.944313 48.8304493 247.644053 51.1646569 248.864771 55.0282464 "></polygon>
            <polygon id="Star-5" fill="#FFFFFF" sketch:type="MSShapeGroup" points="25.0000002 237.773459 19.4940116 242.048019 21.7469705 235.479917 16.0911237 231.511764 22.6646207 231.511764 25 225 27.4071271 231.511764 33.9088763 231.511764 28.5084504 235.479917 30.5059884 242.048019 "></polygon>
            <polygon id="Star-3" fill="#FFFFFF" sketch:type="MSShapeGroup" points="231 27.7734587 225.494012 32.0480188 227.746971 25.4799168 222.091124 21.5117638 228.664621 21.5117641 231 15 233.407127 21.5117641 239.908876 21.5117638 234.50845 25.4799168 236.505988 32.0480188 "></polygon>
            <polygon id="Star-4" fill="#FFFFFF" sketch:type="MSShapeGroup" points="128 131.773459 122.494012 136.048019 124.746971 129.479917 119.091124 125.511764 125.664621 125.511764 128 119 130.407127 125.511764 136.908876 125.511764 131.50845 129.479917 133.505988 136.048019 "></polygon>
        </g>
    </g>
</svg>